<?xml version="1.0" encoding="UTF-8"?>
<svg id="Layer_2" data-name="Layer 2" xmlns="http://www.w3.org/2000/svg" viewBox="0 0 449 350.66">
  <g id="Layer_1-2" data-name="Layer 1">
    <g>
      <path d="M374.525,31.286c1.487.598,2.974,1.196,5.077,2.075,4.564,2.733,8.511,5.184,12.53,7.887.324.48.577.71.887,1.259,1.066,1.699,2.074,3.078,3.171,4.767.915,1.279,1.742,2.248,2.568,3.217.836,1.397,1.673,2.793,2.798,4.751,2.948,4.745,5.607,8.93,8.266,13.114,0,0,.062.361.226.753.403.619.641.847.88,1.075,14.631,26.177,27.653,53.094,37.746,81.661.326.906.326,1.656.326,2.781-1.133,1.185-2.514,1.794-3.364,2.835-27.079,33.186-56.999,63.63-88.844,92.221-6.415,5.76-12.881,11.463-19.771,17.451-.7.409-.83.631-.837.926,0,0-.103-.002-.405.151-1.825,1.605-3.347,3.057-4.87,4.509-1.192.899-2.385,1.798-4.001,3.041-.615.623-.807.901-.999,1.18,0,0,.091-.004-.277.053-2.506,2.013-4.643,3.97-6.781,5.927-21.829,16.636-43.658,33.273-65.492,49.903-.66.503-1.381.925-2.6,1.792-5.336,3.73-10.146,7.052-15.265,10.503-2.639,1.394-5.159,2.406-7.25,3.987-3.02,2.283-5.491,1.897-8.489-.133-4.371-2.96-9.051-5.465-13.599-8.164,0,0-.082.043-.131-.192-.36-.404-.671-.573-.982-.741-.398-.307-.796-.615-1.608-1.193-.745-.437-1.076-.603-1.408-.769-.406-.33-.811-.661-1.672-1.323-3.066-2.129-5.677-3.927-8.289-5.725-14.951-11.301-29.956-22.531-44.831-33.931-7.612-5.833-14.991-11.97-22.877-18.466-2.053-1.82-3.704-3.143-5.355-4.467-1.419-1.292-2.838-2.584-4.693-4.236-1.192-.914-1.948-1.469-2.705-2.023-12.634-11.549-25.598-22.761-37.822-34.73-16.631-16.283-32.696-33.144-49.35-50.192-.725-.794-1.104-1.154-1.482-1.513,0,0-.279-.286-.564-.701-3.189-3.315-6.093-6.214-8.998-9.114-.31-.673-.619-1.345-1.202-2.519-.578-.713-.882-.926-1.187-1.139-.111-.242-.26-.459-.664-1.093-.922-1.215-1.625-1.987-2.329-2.759-.872-.83-1.743-1.66-2.798-3.083C3.351,158.202,1.676,156.101,0,154c0-.75,0-1.5.311-2.801,2.872-7.724,5.433-14.897,7.994-22.07.317-.695.634-1.39,1.221-2.632,4.406-9.802,8.543-19.059,12.679-28.315,0,0-.007-.043.26-.225,5.401-9.739,10.535-19.296,15.669-28.853,0,0-.023-.101.26-.231,4.481-6.68,8.869-13.118,12.826-19.811,4.313-7.295,9.261-13.672,17.924-15.999,12.037-3.656,24.074-7.312,36.881-11.053,7.591-1.683,14.411-3.28,21.232-4.877,10.885-1.505,21.77-3.011,33.276-4.164,2.57.911,4.519,1.469,6.918,2.028,3.148,0,5.847-.002,8.547.312.008.735.013,1.155-.429,1.617-3.816.401-7.186.76-10.924,1.115-1.794.306-3.22.617-5.09.926-4.139.365-7.835.731-11.876,1.116-1.457.308-2.569.597-4.104.887-3.483.665-6.542,1.329-9.599,2.003.002.009-.014-.017-.439-.018-3.803.67-7.181,1.34-10.559,2.022,0,.011-.014-.016-.421-.017-2.813.666-5.218,1.333-7.991,1.995-1.1.016-1.834.036-2.97.061-4.509,1.302-8.616,2.599-13.132,3.898-1.721.178-3.094.162-4.333.563-7.713,2.493-15.392,5.088-23.089,7.63-4.281,1.414-8.192,3.261-10.746,7.305-3.353,5.309-7.014,10.425-10.334,15.754-16.823,26.995-30.872,55.347-41.71,85.281-1.138,3.143-1.105,5.632,1.096,8.203,4.725,5.519,9.101,11.354,14.039,16.67,10.712,11.532,21.513,22.993,32.604,34.16,11.875,11.956,23.928,23.752,36.27,35.223,10.176,9.457,20.792,18.45,31.387,27.444,11.224,9.527,22.453,19.069,34.054,28.127,11.063,8.638,22.529,16.768,33.964,24.918,9.146,6.518,18.601,12.603,27.733,19.141,3.592,2.572,6.528,2.22,9.929-.127,10.077-6.953,20.312-13.678,30.366-20.664,4.259-2.96,8.221-6.348,12.351-9.751.033-.21.039-.635.397-.677,2.682-1.541,5.167-2.842,7.304-4.572,15.801-12.793,31.533-25.672,47.628-38.567,3.609-2.997,6.946-5.878,10.121-8.929,2.297-2.208,4.376-4.641,6.536-7.002-.017-.028.04.004.385-.024,2.755-2.015,5.165-4.002,7.589-5.996.013-.007.026-.034.327-.174,2.467-1.939,4.777-3.592,6.775-5.561,9.494-9.356,18.878-18.822,28.363-28.187,1.723-1.701,3.894-2.955,5.575-4.69,5.313-5.482,10.628-10.974,15.696-16.681,10.339-11.644,20.56-23.395,30.689-35.223.899-1.05,1.445-3.231.997-4.467-2.575-7.097-5.5-14.066-8.334-21.469-2.167-5.689-4.127-11.07-6.507-16.258-1.515-3.302-3.654-6.317-5.513-9.674,0-.213-.033-.638-.04-.978-.362-1.107-.718-1.874-1.088-2.939-.32-.774-.626-1.251-.978-2.046-.663-.821-1.281-1.323-1.894-2.037.004-.213-.027-.637-.039-1.012-5.341-9.486-10.671-18.597-16.006-27.934-.006-.226-.062-.675-.197-.989-2.013-2.793-3.891-5.273-5.798-7.734-.028.019.014-.035-.023-.39-1.681-2.793-3.326-5.231-5.018-8.011-3.646-7.911-11.365-8.927-18.042-11.499-1.865-.718-4.065-.566-6.378-.922-.782-.672-1.296-1.236-1.421-1.91,1.904-1.521,3.42-2.93,5.314-4.332,1.377.136,2.375.264,3.621.548.978.38,1.708.605,2.438.83Z" fill="#7c98b0"/>
      <path d="M167.001,14.998c-1.949-.558-3.899-1.117-6.022-2.048.686-.536,1.546-.699,2.896-.617,1.032.063,1.574-.12,2.115-.302,1.159-.213,2.318-.426,3.907-.489.661.213.85.144.997-.057.182-.097.365-.193,1.261-.375,3.584-.138,6.454-.192,9.634-.282.607-.31.903-.583,1.447-1.081,1.564-.45,2.879-.675,4.512-.938.622-.315.927-.592,1.236-.839.005.031-.047-.004.146-.042.441-.131.663-.267.871-.575.012-.131-.013-.392-.013-.392.571-.067,1.141-.135,2.352-.429,5.648-1.348,10.657-2.468,16.002-3.577.773-.081,1.209-.173,2.042-.224,3.553-.515,6.708-1.072,10.223-1.578,1.37-.35,2.381-.752,3.393-1.153,5.022,0,10.044,0,15.823.301,5.913.404,11.069.507,16.65.631,2.792-.296,5.16-.614,7.527-.932,4.357,0,8.714,0,13.658.344,1.761.488,2.935.632,4.468.983,6.189.765,12.02,1.322,17.999,1.926.149.047.43-.087.713.153,1.238.343,2.194.446,3.459.649.744.117,1.177.134,1.919.375,6.823,1.918,13.338,3.613,20.026,5.637.884.47,1.595.61,2.637.679,1.59.359,2.848.788,4.319,1.493,1.111.423,2.01.57,2.909.718.401.026.803.051,1.565.294.361.217.498.645.315.853.899.431,1.981.654,3.27.888.491.083.705.246.979.872.852.568,1.574.765,2.586.925.96.307,1.631.65,2.113,1.296-.184,1.154-.18,2.006-.175,2.859,1.918-.039,3.835-.078,6.053-.089,1.301.665,2.303,1.303,3.163,2.195-.086,1.486-.03,2.718.025,3.95,0,0-.002.002-.298.022-.762.335-1.227.651-2.02.852-8.14-3.864-15.952-7.614-23.844-11.678-.97-.371-1.861-.426-3.129-.512-22.172-6.652-44.622-8.719-67.235-9.456-24.181-.789-48.119.948-71.739,7.452-3.071.927-5.903,2.116-9.107,3.293-1.119-.037-1.865-.061-2.611-.085-.006-.42-.011-.84-.102-1.961-3.18-2.174-6.263-3.518-8.914.073M334.97,14.179c-.406.095-.812.19-1.217.285.089.12.193.353.265.343.412-.057.816-.17.953-.628Z" fill="#7494b1"/>
      <path d="M326.069,9.737c-6.515-1.694-13.029-3.389-19.707-5.623.771-1.731,1.704-2.923,2.638-4.114,2.7,0,5.4,0,8.55,0-.059,4.044,1.965,4.967,5.7,5.128,3.899.168,7.806,1.202,11.578,2.306.697.204.77,2.54.74,4.311-1.122.352-1.852.286-2.582.219-1.259-.429-2.518-.859-4.34-1.486-1.235-.379-1.906-.559-2.578-.74Z" fill="#f5f9f9"/>
      <path d="M208.006,2.943c-5.009,1.12-10.018,2.241-15.437,3.41.532-1.083,1.298-2.468,2.463-3.282,1.451-1.014,3.231-1.556,4.918-2.686C202.371,0,204.741,0,207.555.368c.446,1.104.449,1.84.451,2.575Z" fill="#f3f8f9"/>
      <path d="M299.977,3.206c-5.831-.557-11.661-1.114-17.378-1.926C286.141.683,289.571.342,293,0,295.042,0,297.083,0,299.561.4c.429,1.202.422,2.004.415,2.807Z" fill="#f5f9f9"/>
      <path d="M300.125,3.253c-.142-.849-.135-1.652-.126-2.854C302.7,0,305.4,0,308.55,0c-.484,1.191-1.418,2.383-2.497,3.89-.579.299-1.012.282-2.002-.109-1.536-.454-2.516-.535-3.496-.616,0,0-.282.134-.43.087Z" fill="#fefefe"/>
      <path d="M208.342,2.955c-.339-.747-.341-1.483-.343-2.587C213.022,0,218.044,0,223.533,0c-.545.401-1.556.802-3.395,1.112-3.935.465-7.043,1.021-10.15,1.577-.436.092-.873.184-1.645.265Z" fill="#fefffe"/>
      <path d="M256.048.91c-5.156-.103-10.312-.206-15.758-.61C245.022,0,250.044,0,255.541.228c.475.228.506.682.506.682Z" fill="#9ba6aa"/>
      <path d="M292.534,0c-2.963.342-6.393.683-10.294,1.072-1.646-.096-2.82-.24-4.117-.728C282.689,0,287.379,0,292.534,0Z" fill="#fefefe"/>
      <path d="M256.473.932c-.425-.021-.456-.476-.465-.704C258.371,0,260.741,0,263.556,0c-1.923.318-4.291.635-7.083.932Z" fill="#acb8bc"/>
      <path d="M331.048,273.047c1.383-1.782,2.905-3.234,4.731-4.787.066,1.494.276,3.417-.568,4.568-.557.759-2.63.405-4.164.22Z" fill="#ecf3f4"/>
      <path d="M319.248,282.944c1.74-1.983,3.878-3.94,6.341-5.971.278,4.058-1.9,5.991-6.341,5.971Z" fill="#e8f2f4"/>
      <path d="M326.153,276.859c-.054-.199.138-.478.581-.829.055.202-.14.476-.581.829Z" fill="#e8f2f4"/>
      <path d="M336.343,267.976c-.153-.213-.023-.435.429-.598.094.209-.061.385-.429.598Z" fill="#ecf3f4"/>
      <path d="M118.998,274.388c1.656.935,3.308,2.258,5.096,3.851-3.32,2.149-4.246,1.489-5.096-3.851Z" fill="#ebf6f8"/>
      <path d="M111.276,267.909c1.086.385,1.843.94,2.727,1.758-.934-.354-1.995-.971-2.727-1.758Z" fill="#e8f1f4"/>
      <path d="M68.675,33.038c-8.194,2.352-13.142,8.73-17.455,16.025-3.957,6.693-8.345,13.131-12.829,19.862-3.278-5.232-2.787-5.817,2.081-10.359,3.076-2.87,5.244-6.746,7.665-10.277,2.824-4.119,5.23-8.552,8.33-12.441,1.212-1.52,3.739-2.254,5.809-2.751,1.875-.45,3.945-.089,6.398-.059Z" fill="#f3f9f8"/>
      <path d="M181.479,10.865c-2.87.053-5.74.107-9.047.108,5.155-5.846,11.474-7.525,17.469-4.4.087.388.112.65-.11.753-.516.184-.727.363-.854.64,0,0,.052.036-.264.051-.625.287-.933.558-1.242.83-1.315.225-2.631.45-4.494.953-.851.54-1.155.803-1.458,1.065Z" fill="#f3f8f9"/>
      <path d="M126.773,17.08c-6.337,1.652-13.157,3.249-20.376,4.817,2.21-4.515,7.069-3.854,11.097-4.763,2.797-.631,5.854-.113,9.279-.054Z" fill="#e6f3f7"/>
      <path d="M165.663,11.987c-.214.226-.756.408-1.458.396.27-.276.7-.358,1.458-.396Z" fill="#7c98b0"/>
      <path d="M170.699,11.426c.048.26-.141.329-.46.204-.088-.062.265-.263.46-.204Z" fill="#7c98b0"/>
      <path d="M347.124,17.782c-.671-.344-1.342-.687-2.536-1.264-1.176-.497-1.829-.761-2.482-1.026-.144-.255-.358-.419-1.073-.726-1.241-.447-2.052-.659-2.862-.871,0,0-.137-.428-.196-.645,5.511-1.277,11.11-2.452,14.496,4.027.111.213.627.43.836.346,4.712-1.883,4.995,1.582,5.305,5.035-1.048.317-1.771.226-2.494.135-1.001-.637-2.003-1.275-3.527-2.222-2.171-1.137-3.818-1.963-5.466-2.79Z" fill="#f5f9f9"/>
      <path d="M333.199,12.239c.518-.209,1.248-.142,2.344-.054.366.021.457.399.511.586-.845.039-1.745-.108-2.855-.531Z" fill="#7c98b0"/>
      <path d="M329.918,16.509c7.813,3.75,15.625,7.499,23.926,11.609,1.02.604,1.551.847,2.268,1.354,2.094,1.647,4.003,3.031,6.081,4.564.17.15.618.212.605.237-.013.025-.035.078-.035.078.514.563,1.028,1.127,1.997,2.065,4.297,4.677,8.194,8.931,11.969,13.29,6.126,7.075,12.173,14.219,18.386,21.592.924.796,1.715,1.333,2.71,2.155,1.8,1.244,3.397,2.203,5.021,3.302.028.14.302.224.142.565-2.276.979-4.392,1.617-6.722,2.32.666,1.28,1.3,2.433,1.876,3.615,8.806,18.046,17.886,35.966,26.307,54.191,5.585,12.087,5.165,12.285-3.337,22.314-1.612,1.901-3.229,3.8-4.894,5.654-6.084,6.774-12.19,13.529-18.907,20.977-4.124-4.82-7.823-9.143-11.259-13.668,1.855-2.041,3.447-3.878,5.33-5.85,1.382-1.434,2.473-2.734,3.855-4.156,1.171-1.291,2.051-2.46,3.236-3.762,3.787-4.09,7.269-8.046,11.141-12.446-6.058-6.214-11.9-12.207-17.729-18.577-1.077-4.595-3.521-7.055-8.045-6.778.111-.107-.083.132-.043-.248-.82-4.971-3.922-6.185-8.351-5.872-.653-.423-1.052-.756-1.601-1.295-.46-.319-.77-.432-.991-.597.09-.052-.057.095-.01-.284-1.407-2.579-2.86-4.78-4.544-7.329,4.611.43,8.98.838,13.692,1.286,2.568.897,4.793,1.752,7.049,2.571.032-.037.113.018.29.249.55.327.923.423,1.493.772.769.368,1.341.483,1.913.598-.066-.385-.133-.77-.255-1.416-.196-.37-.336-.48-.483-.892-.51-1.16-1.012-2.019-1.575-3.2-.734-1.426-1.408-2.53-2.142-3.957-.933-1.798-1.806-3.272-2.75-5.07-.571-1.035-1.072-1.747-1.611-2.803-1.63-2.832-3.223-5.319-4.857-7.764-.043.042.072.007.068-.259-.423-.825-.843-1.385-1.343-2.317-1.108-1.032-2.135-1.691-3.176-2.391-.013-.042.002-.128.36-.309-.06-1.074-.479-1.966-.957-3.179-1.387-2.138-2.714-3.955-4.091-5.992-.049-.219-.44-.442-.531-.748-.536-.745-.981-1.184-1.477-1.911-.589-.83-1.128-1.373-1.771-2.242-4.47-4.697-8.836-9.069-13.365-13.735-9.409-8.188-19.907-13.825-31.462-17.488-15.835-5.02-32.22-6.746-48.69-7.758-23.348-1.435-46.663-1.513-69.526,4.359-11.995,3.081-23.679,7.088-32.279,17.292-6.777,7.451-6.951,13.919-.732,20.181,6.588,6.077,14.464,6.252,21.776,3.922,11.012-3.509,21.57-8.438,32.546-12.825.225-.061.621-.306.988-.353,2.443-.826,4.519-1.606,6.957-2.388,2.827-.796,5.292-1.589,8.183-2.424,10.102-.902,19.767-1.937,29.459-2.534,3.708-.228,7.478.545,11.554.983,4.359,2.491,8.384,4.86,12.563,7.528,1.222,1.456,2.291,2.614,2.959,3.858-8.849-.08-17.307-.056-25.744-.462-10.602-.509-17.4,4.167-21.782,13.769-1.908,4.18-1.533,6.788,2.317,8.495,4.524,2.005,9.271,3.545,14.002,5.033,3.708,1.166,7.538,1.946,11.11,3.252-14.271,1.285-28.339,2.216-41.559,3.091,14.263,9.286,26.622,22.232,36.637,37.854.655,2.583.944,5.004,2.1,6.894,1.753,2.867,1.706,5.341-.507,7.995-.773-.05-1.212-.139-1.734-.582-2.034-.397-3.984-.441-6.35-.435-1.796-.121-3.175-.293-4.658-.787-1.713-.294-3.322-.265-5.398-.19-8.194.045-15.922.045-24.963.045,2.266.777,3.296,1.17,4.349,1.486,25.939,7.797,39.227,25.606,39.099,52.681-.145,30.561-3.364,60.789-10.421,90.888-.319,1.457-.422,2.627-.562,4.131-.014.779.008,1.224-.163,1.941-.771,1.422-1.35,2.572-2.097,3.993-.241.687-.313,1.104-.569,1.79-.272.591-.253,1.067-.462,1.211-10.795,7.435-21.65,14.786-32.391,22.298-2.292,1.603-4.004,1.501-6.228-.069-4.348-3.069-8.982-5.732-13.337-8.791-34.212-24.035-66.842-50.075-98.065-77.871-31.112-27.698-60.637-56.965-87.455-88.897-2.117-2.521-3.072-4.652-1.594-8.002,4.363-9.886,7.684-20.285,12.654-29.837,9.814-18.864,20.464-37.293,31.05-56.096,3.415-5.614,7.211-10.032,13.764-11.685,4.924-1.241,9.614-3.409,14.532-5.1.125.064.347-.106.679-.094,1.134-.304,1.937-.621,3.084-.941,1.424-.369,2.504-.735,3.992-1.097,6.819-1.649,13.229-3.302,19.971-4.935.756-.094,1.181-.208,1.927-.286,1.122-.231,1.923-.498,3.139-.76,7.795-1.342,15.175-2.688,22.964-4.002,2.484-.307,4.558-.646,6.88-.959.248.027.71-.161.962-.125.412-.024.571-.084,1.055-.098,1.17-.11,2.015-.266,3.202-.501,2.12-1.5,3.897-2.92,5.96-4.42,1.045-.694,1.803-1.309,2.895-2.027,3.418-1.797,6.503-3.491,9.929-5.242,3.121-1.301,5.9-2.545,8.678-3.789,23.38-6.766,47.318-8.503,71.499-7.714,22.613.738,45.063,2.804,67.575,9.599,1.434.342,2.151.513,2.869.684M197.045,291.721c5.658,4.691,5.86,4.673,8.357-1.291,5.471-9.154,10.941-18.309,16.632-27.832-3.491-.747-5.604-1.2-8.61-1.843,9.559-6.825,15.384-15.406,18.44-25.323,3.206-10.405,5.414-21.194,7.071-31.967.822-5.34,1.016-11.831-1.305-16.37-4.298-8.405-12.704-12.584-22.614-14.904-11.966-5.11-24.682-7.755-37.449-7.064-18.226.986-31.98,11.305-28.916,32.77.767,5.376,1.646,10.737,2.729,17.765-7.558-5.22-14.3-9.394-20.506-14.253-19.53-15.289-36.844-32.613-48.703-54.77-9.884-18.467-9.162-35.697,4.641-52.29,8.064-9.694,17.142-18.026,27.9-25.341.42-.363.84-.726,1.927-1.227,2.469-1.56,4.939-3.121,7.998-4.743.451-.361.902-.722,2.044-1.192,4.774-2.623,9.548-5.246,14.929-7.867.277-.274.554-.547,1.576-.94.781-.867,1.561-1.735,2.342-2.602l-.576-.859c-1.227.283-2.454.567-3.708.911,0,0-.043-.067-.936-.313-6.104,1.3-12.208,2.6-19.029,3.811-.649.257-1.297.514-2.693.651-11.159,3.245-22.342,6.411-33.453,9.814-1.768.541-3.787,1.792-4.712,3.31-7.258,11.906-14.279,23.957-21.862,36.294-.601,1.277-1.203,2.554-2.406,4.213-5.079,11.193-10.044,22.44-15.306,33.546-1.644,3.471-1.267,5.74,1.329,8.718,41.142,47.186,87.5,88.746,136.73,127.225.891.696,2.027,1.08,3.062,2.261,4.812,3.571,9.624,7.142,14.524,10.928,0,0,.158.184.555.776M228.28,82.289c-4.792,2.401-7.764-.023-9.763-3.712-5.135,2.236-9.947,4.332-15.527,6.763,9.757,1.877,18.701,1.858,28.1-2.251,7.486-2.816,12.342-8.554,17.477-15.52-6.991,1.266-13.026,2.359-19.686,3.565,2.877,4.371,3.018,7.752-.602,11.154M127.109,172.243c-.454-1.728-.907-3.456-1.135-6.089.375-4.349.75-8.698,1.688-13.405,2.77-2.088,5.257-4.891,8.366-6.122,7.393-2.925,14.924-6.399,22.678-7.332,19.433-2.338,39.02-3.404,58.55-4.932,2.148-.168,4.321-.023,6.482-.023.093-.588.186-1.176.278-1.764-3.548-1.664-6.954-3.801-10.667-4.916-22.706-6.819-45.705-5.592-68.769-2.152-1.763.263-3.648-.287-4.829-.726,9.609-3.009,19.075-6.635,28.857-8.892,17.263-3.983,34.845-3.22,52.939-1.559.831-.007,1.661-.014,3.258.326,1.397.121,2.793.242,4.839.687,2.321.388,4.642.777,6.963,1.165.192-.435.385-.871.577-1.306-2.687-1.486-5.374-2.972-8.436-5.025-9.41-8.132-20.446-11.513-33.345-11.717-6.838-1.46-13.676-2.92-21.095-4.754-5.998-4.249-11.995-8.498-18.207-13.448-1.678-3.162-3.355-6.323-5.244-9.883-19.294,8.173-37.393,17.75-50.517,34.511-4.98,6.36-8.639,13.557-7.222,22.108,2.547,15.364,10.251,27.824,21.896,37.948,0,0-.013.08.234.8,3.083,2.48,6.166,4.96,9.685,8.028.683-.257,1.367-.514,2.174-1.527Z" fill="#181d36"/>
      <path d="M261.43,149.615c1.38.171,2.759.343,4.892.632,2.534.285,4.316.453,6.098.62.438.089.876.179,1.973.424,2.994.65,5.329,1.145,9.009,1.925-2.882-7.071-6.751-12.321-10.905-17.409-10.037-15.222-22.395-28.168-36.658-37.454,13.22-.875,27.288-1.806,41.944-3.085,7.59-.162,14.714-.742,21.57.353,19.98,3.191,38.22,11.254,55.135,22.12,9.007,5.786,17.39,12.544,26.054,18.863l-.97,1.712c-15.778-6.793-31.888-11.894-50.222-11.163,3.003,2.387,5.066,4.026,7.14,6.042,1.345,1.162,2.677,1.947,3.963,2.736-.047.004.038-.038.043.325.973,1.682,1.94,3.001,2.908,4.32.377-.629.754-1.258,1.43-1.711,3.382,2.545,6.465,4.913,9.452,7.535,1.009.982,2.115,1.709,3.484,2.566.727.489,1.19.849,1.656,1.521.666.71,1.329,1.108,2.276,1.673,2.468,2.271,4.652,4.377,6.818,6.842.972.872,1.961,1.383,3.243,2.04,1.84,1.683,3.387,3.221,4.652,4.964.595.76,1.471,1.315,2.652,1.938,1.626,1.079,2.947,2.09,4.4,3.378.425,1.017.718,1.756,1.024,2.874.315,1.853.617,3.327.781,4.856-.044.021.05-.014.511-.043,1.26.583,2.773,1.032,2.926,1.764.378,1.817.134,3.763.14,5.657-1.551-.503-3.117-.964-4.647-1.522-1.612-.588-3.191-1.268-5.019-1.995-.413-.362-.591-.635-.736-1.252-.493-1.797-.844-3.349-1.591-4.679-.983-1.751-2.279-3.328-3.155-5.015.607-.341.93-.646,1.252-.952-.21-.182-.42-.364-.629-.546-.303.51-.606,1.02-1.325,1.531-1.798-.003-3.18-.007-4.574-.005-.011.006.002-.016-.002-.392-.191-2.247.222-4.958-3.318-2.676-1.567-1.453-2.849-2.774-4.005-4.528.195-3.632-.526-5.516-4.227-3.011-.667-.54-1.067-.956-1.346-1.669-.483-1.638-.785-3.274-1.75-4.263-2.674-2.742-6.306-4.781-8.293-7.904-2.435-3.827-5.155-3.273-8.612-2.399-.436-.126-.588-.314-.595-.998.493-2.182.94-3.947,1.322-5.457-5.609-1.557-11.054-3.068-16.828-4.651-7.33-3.772-14.329-7.473-21.389-11.446-3.717-2.048-7.373-3.823-11.214-5.884-5.553-3.037-10.726-6.441-17.121-5.572l-.277,1.32c3.875,2.52,7.751,5.043,11.739,7.777.322.482.588.663,1.059,1.059,1.674,1.166,3.202,2.032,4.799,3.23,5.998,6.475,12.195,12.388,17.777,18.833,4.847,5.597,9.643,11.428,13.312,17.815,6.08,10.583,12.189,21.334,16.522,32.686,4.569,11.97,7.073,24.729,10.464,37.509.194,1.351.404,2.335.847,4.414,1.827-2.091,2.994-3.426,4.377-4.869.487-.302.673-.559,1.081-1.015,1.78-1.706,3.252-3.275,4.697-4.873-.028-.03.029.03.378.019,1.049-.049,1.749-.087,2.836-.101,4.151-.216,6.043-2.115,5.73-5.982.017.003-.01.016.243-.138.431-.701.609-1.248,1.004-1.826.217-.032.655-.069,1.064-.049,2.127.384,3.845.749,6.231,1.256-2.715,3.714-6.934,5.054-6.501,9.479.034.348-.909.813-1.423,1.191-3.073,2.265-6.582,4.129-9.107,6.892-2.358,2.579-3.675,6.11-5.45,9.222,0,0-.013.027-.423.022-4.832-.407-6.401,2.56-7.537,6.035,0,0-.057-.032-.42-.024-2.291,1.323-4.291,2.548-6.127,3.982-1.517,1.186-2.851,2.609-4.249,3.946-2.1,2.008-4.186,4.032-6.644,6.056-.853.099-1.471.031-1.806.307-5.97,4.934-11.812,10.03-17.902,14.809-1.969,1.545-6.026,1.783-6.609,3.482-1.678,4.893-5.691,7.139-9.179,9.911-5.819,4.623-11.984,8.811-18.003,13.183-.349-.311-.699-.623-1.048-.934v4.391s-.007.425-.443.634c-2.716.679-4.996,1.149-7.233,1.611-1.32-2.164-2.679-4.389-4.037-6.615.072-.416.144-.833.724-1.473,1.554.284,2.51.832,3.517,1.357l.892-.887c-.819-1.594-1.639-3.188-2.458-4.782-.022-.445-.044-.89.316-1.733.398-1.716.415-3.035.431-4.354,6.842-29.813,10.061-60.041,10.205-90.602.128-27.075-13.16-44.884-39.099-52.681-1.053-.316-2.083-.709-4.349-1.486,9.041,0,16.769,0,25.285.122,2.251.197,3.715.272,5.179.347M335.916,220.502c-.257-.212-.514-.423-.753-1.372-1.68-2.829-2.726-6.499-5.157-8.333-8.258-6.231-12.826-15.07-18.069-23.486-1.319-2.116-2.479-4.36-4.018-6.303-3.058-3.86-6.329-7.552-9.511-11.314-.461.331-.922.661-1.383.992,15.477,25.32,25.032,52.762,29.29,82.967,2.567-2.253,4.087-4.089,6.025-5.183,4.036-2.277,4.395-5.286,2.957-9.286-1.907-5.308-3.462-10.741-5.227-16.101-.627-1.902-1.427-3.747-2.621-6.846,3.433,1.764,5.457,2.804,7.705,4.29.286.155.572.31.953.781l.302.146c-.14-.147-.279-.294-.492-.952M309.936,224.386c.003-.429.006-.859.044-2.157-.339-4.912-.086-10.042-4.99-13.843-.276-.445-.551-.891-.898-1.921-.02-.196-.039-.391-.075-1.292-.342-1.062-.684-2.123-1.289-3.763-.265-.791-.53-1.583-.314-2.713-.48-.565-.96-1.131-1.492-2.293-.014-.399-.028-.798-.013-1.927-.949-1.16-1.899-2.32-3.129-4.052-.266-.793-.532-1.586-.85-3.084-.893-1.391-1.785-2.781-2.678-4.172-.335.162-.671.325-1.006.487.583,3.114,1.166,6.228,1.22,9.789.521,1.191,1.042,2.383,1.595,4.205.012.421.024.843-.563,1.795.725,4.183,1.45,8.366,2.377,13.463.456,24.344-3.42,48.116-8.941,72.205,6.028-5.368,12.056-10.736,18.78-16.156,2.796-2.649,5.592-5.299,9.184-7.986.466-.144,1.18-.144,1.361-.454,1.993-3.431-1.697-18.759-5.201-22.266-.033-.744-.066-1.488.424-2.622-.481-.878-.962-1.757-1.509-3.287-.015-.436-.03-.873.518-1.756-.818-1.868-1.637-3.735-2.528-5.575,0,0-.075.02-.027-.625Z" fill="#b6b4b4"/>
      <path d="M260.188,306.057c1.543,1.956,2.901,4.181,4.222,6.345,2.237-.461,4.517-.932,7.201-1.401-3.694,3.195-7.656,6.583-11.915,9.542-10.054,6.986-20.288,13.711-30.366,20.664-3.401,2.347-6.337,2.699-9.929.127-9.131-6.538-18.587-12.623-27.733-19.141-11.435-8.149-22.901-16.28-33.964-24.918-11.6-9.057-22.829-18.6-34.054-28.127-10.596-8.993-21.212-17.986-31.387-27.444-12.342-11.471-24.395-23.266-36.27-35.223-11.09-11.167-21.891-22.628-32.604-34.16-4.938-5.316-9.314-11.151-14.039-16.67-2.201-2.571-2.234-5.061-1.096-8.203,10.838-29.934,24.887-58.286,41.71-85.281,3.321-5.328,6.981-10.444,10.334-15.754,2.554-4.044,6.465-5.892,10.746-7.305,7.697-2.542,15.376-5.137,23.089-7.63,1.239-.4,2.613-.384,4.757-.533,4.926-1.293,9.018-2.613,13.111-3.933.733-.02,1.467-.04,3.008-.041,3.191-.657,5.574-1.333,7.957-2.009,0,0,.013.028.472.03,2.253.003,4.101.27,5.828-.071,1.632-.322,3.137-1.284,4.698-1.964,0,0,.015.026.465.031,3.443-.883,7.274,2.008,9.572-2.017,1.111-.289,2.223-.579,3.973-.606,2.396.385,4.205.826,5.898.552,2.093-.339,4.09-1.271,6.129-1.948,1.426-.31,2.851-.621,4.837-.662,1.773,1.768,2.985,3.268,4.198,4.768-.758.615-1.516,1.229-2.949,1.904-2.421,1.546-4.168,3.033-5.915,4.519-.845.156-1.69.311-2.961.273-.687-.059-.946.076-1.206.211,0,0-.462.188-.963-.138-2.868-.602-5.595-2.396-7.036,1.225-7.379,1.346-14.759,2.693-22.696,3.738-1.183-.675-1.807-1.05-2.432-1.424l-.887,2.444c-.425.114-.849.228-1.807.043-5.433.52-10.377,1.151-15.212,2.257-1.787.409-3.319,1.936-4.967,2.953-1.08.366-2.159.732-3.777.821-1.433.218-2.328.713-3.223,1.209,0,0-.223.17-.798.065-6.932,1.374-13.788,1.843-19.482,4.661-4.302,2.129-9.523,5.653-8.645,12.359-10.304,18.609-20.954,37.038-30.768,55.902-4.97,9.552-8.291,19.952-12.654,29.837-1.479,3.351-.524,5.481,1.594,8.002,26.818,31.933,56.343,61.2,87.455,88.897,31.223,27.796,63.853,53.836,98.065,77.871,4.355,3.06,8.989,5.723,13.337,8.791,2.224,1.569,3.935,1.671,6.228.069,10.742-7.511,21.596-14.862,32.391-22.298.209-.144.19-.62.462-1.211Z" fill="#b2b3b4"/>
      <path d="M272.444,310.116c-.358-1.422-.358-2.886-.358-4.349.349.311.699.623,1.048.934,6.019-4.371,12.184-8.56,18.003-13.183,3.488-2.772,7.501-5.018,9.179-9.911.583-1.7,4.64-1.937,6.609-3.482,6.091-4.779,11.932-9.875,17.902-14.809.334-.276.953-.208,1.807.029.378.778.389,1.226.4,1.674-15.754,12.852-31.486,25.73-47.287,38.524-2.137,1.73-4.622,3.031-7.304,4.572Z" fill="#b2b3b4"/>
      <path d="M327.376,266.977c-.352-.405-.363-.854-.375-1.638,2.09-2.353,4.176-4.377,6.276-6.386,1.398-1.336,2.731-2.76,4.249-3.946,1.836-1.435,3.835-2.66,6.144-3.954-1.797,2.354-3.876,4.787-6.173,6.995-3.174,3.051-6.512,5.932-10.121,8.929Z" fill="#b2b3b3"/>
      <path d="M169.368,22.972c-1.546-1.396-2.759-2.896-4.162-4.66,3.178-.624,6.547-.983,10.364-1.384,1.193-.018,1.939.007,3.038.244.353.213.348.615.348.615-3.085,1.694-6.169,3.388-9.587,5.185Z" fill="#a9b1bb"/>
      <path d="M111.598,27.018c-3.69,1.315-7.783,2.635-12.299,3.926,3.683-1.326,7.79-2.623,12.299-3.926Z" fill="#a9b1bb"/>
      <path d="M159.556,18.968c-1.595.677-3.592,1.61-5.685,1.949-1.693.274-3.502-.167-5.552-.571,3.402-.647,7.098-1.013,11.237-1.377Z" fill="#a9b1bb"/>
      <path d="M167.451,14.999c2.201-3.592,5.284-2.248,8.462-.388-2.615.387-5.314.388-8.462.388Z" fill="#7396b6"/>
      <path d="M133.538,22.956c-1.136.681-2.641,1.642-4.273,1.964-1.728.341-3.575.075-5.828.06,2.92-.684,6.298-1.354,10.101-2.024Z" fill="#a9b1bb"/>
      <path d="M143.576,20.971c-1.874,4.025-5.705,1.134-9.149,2.008,2.607-.678,5.666-1.343,9.149-2.008Z" fill="#a9b1bb"/>
      <path d="M122.559,24.961c-1.976.677-4.359,1.353-7.183,2.014,1.965-.681,4.371-1.348,7.183-2.014Z" fill="#a9b1bb"/>
      <path d="M179.297,17.73c-.342.057-.337-.345-.317-.546,2.852-1.39,5.683-2.579,8.755-3.506-2.539,1.506-5.318,2.75-8.438,4.052Z" fill="#7c98b0"/>
      <path d="M210.385,2.731c2.711-.598,5.818-1.154,9.395-1.669-2.686.597-5.842,1.154-9.395,1.669Z" fill="#f3f8f9"/>
      <path d="M337.988,14.103c.993.004,1.804.216,2.839.652-.858.001-1.94-.222-2.839-.652Z" fill="#7c98b0"/>
      <path d="M329.838,16.194c-.638.144-1.355-.027-2.412-.34.551-.086,1.442-.031,2.412.34Z" fill="#7c98b0"/>
      <path d="M335.105,14.36c-.272.276-.676.39-1.088.446-.071.01-.176-.222-.265-.343.406-.095.812-.19,1.352-.103Z" fill="#7c98b0"/>
      <path d="M300.838,3.406c.697-.16,1.677-.079,2.903.275-.709.171-1.664.068-2.903-.275Z" fill="#f5f9f9"/>
      <path d="M326.243,10.067c.498-.149,1.169.031,2.073.481-.478.129-1.189-.011-2.073-.481Z" fill="#7c98b0"/>
      <path d="M181.789,10.828c-.007-.226.296-.488.899-.804.003.22-.293.494-.899.804Z" fill="#7c98b0"/>
      <path d="M187.748,8.809c-.009-.234.299-.505.92-.823.007.231-.298.508-.92.823Z" fill="#7c98b0"/>
      <path d="M189.13,7.928c-.066-.239.145-.418.649-.471.014.205-.208.34-.649.471Z" fill="#7c98b0"/>
      <path d="M181.953,279.365c-1.022-.529-2.157-.913-3.048-1.609-49.23-38.479-95.588-80.038-136.73-127.225-2.596-2.978-2.974-5.247-1.329-8.718,5.262-11.106,10.226-22.353,15.965-33.713,2.501-1.146,4.342-2.126,6.322-3.157.05-.014-.039.025-.514-.097-1.448-.481-2.51-.802-3.571-1.122,7.094-12.006,14.114-24.058,21.372-35.964.926-1.518,2.945-2.769,4.712-3.31,11.111-3.402,22.294-6.569,34.193-9.691,1.384-.147,2.027-.416,2.67-.685,6.104-1.3,12.208-2.6,18.777-3.55.579.308.693.266.807.224-.103-.107-.206-.215-.31-.322,1.227-.283,2.454-.567,3.682-.85l.576.859c-.781.867-1.561,1.735-3.008,2.685-.95.34-1.233.598-1.517.855-4.774,2.623-9.548,5.246-14.701,7.621-1.275-.39-2.172-.531-3.068-.673.271.725.542,1.451.814,2.176-2.469,1.56-4.939,3.121-7.93,4.5-1.488-.574-2.453-.968-3.419-1.361-.595.663-1.19,1.325-1.785,1.988,1.077.278,2.155.555,3.232.833-10.19,7.264-19.268,15.595-27.332,25.29-13.802,16.593-14.525,33.822-4.641,52.29,11.859,22.157,29.173,39.481,48.703,54.77,6.206,4.859,12.949,9.033,20.506,14.253-1.083-7.028-1.962-12.388-2.729-17.765-3.064-21.466,10.69-31.785,28.916-32.77,12.768-.69,25.483,1.955,37.847,7.551,9.677,6.864,11.259,15.979,8.875,26.047-2.861,12.082-5.331,24.389-9.68,35.956-6.319,16.806-15.714,31.887-31.008,42.399-.729.501-1.107,1.511-1.648,2.285" fill="#fbfbfb"/>
      <path d="M383.963,94.013c.501.712,1.001,1.424,1.204,2.658-2.367,4.482-.634,5.611,3.178,5.193.674,1.104,1.348,2.207,1.724,3.846-.551,1.594-.804,2.654-1.057,3.713-2.225-.856-4.449-1.712-7.23-2.866-1.116-.638-1.677-.978-1.939-1.496-.617-3.859-2.48-3.986-5.375-1.646-2.396-.855-4.43-1.658-6.471-2.819-.466-1.054-.925-1.749-1.384-2.444-.537.619-1.074,1.238-1.994,1.855-4.135-1.09-7.888-2.177-11.807-3.444-.466-.374-.78-.397-.962-.317.145-.067-.125.104-.043-.282.117-.909.153-1.433.19-2.333.003-1.13.004-1.883.365-2.698.812-.855,1.265-1.648,2.085-2.401,1.346.149,2.323.259,3.666.421,1.865-.54,3.745,4.215,5.302-.077,1.77.554,3.207.912,4.771,1.559,1.356,1.714,2.586,3.138,3.854,4.862.444.62.85.941,1.256,1.262.235-.517.471-1.033.653-1.908-1.007-1.753-2.637-3.083-2.782-4.558-.353-3.596-2.514-4.057-5.608-4.184-3.035-2.424-5.776-4.688-8.495-7.058.023-.106.073-.316.03-.681-.179-5.297-3.097-6.026-7.416-5.092-.768-.284-1.257-.538-1.921-1.129-1.408-.523-2.64-.709-4.232-.882-1.741-.324-3.123-.662-4.772-1.304-2.216-.408-4.165-.512-6.425-.589-1.381-.525-2.45-1.078-3.483-2.04-.585-.869-1.205-1.329-1.826-1.789-.204.803-.407,1.606-.885,2.675-1.511.342-2.748.418-4.149.139-3.103-1.884-6.053-5.931-9.296-.269-.783-.01-1.23-.067-1.732-.414-.733-.23-1.41-.169-2.501-.143-1.786-.219-3.157-.404-4.735-.815-1.377-.656-2.548-1.086-4.036-1.524-.739-.048-1.161-.087-1.613-.501-.365-2.752.731-7.01-4.105-3.475-4.025-2.369-8.05-4.738-12.466-7.574-5.112-2.04-9.834-3.614-14.919-5.312-2.107-.234-3.851-.344-5.989-.598-1.786-.134-3.179-.125-4.984-.229-3.956.429-7.498.973-11.449,1.484-5.7,1.345-10.992,2.722-16.247,4.079.036-.021-.037-.061-.42-.039-3.813,1.383-7.243,2.744-11.049,4.126-8.286,2.828-16.139,5.816-24.127,8.383-6.267,2.014-12.694,3.756-19.373.287-5.949-5.161-3.266-10.856-1.773-16.435,8.256-10.166,19.939-14.173,31.934-17.254,22.863-5.872,46.178-5.795,69.526-4.359,16.47,1.013,32.855,2.738,48.69,7.758,11.555,3.663,22.053,9.301,31.317,17.811-.102,2.026-.878,4.119-.237,4.731,3.797,3.629,7.905,6.937,11.996,10.243.173.14,1.218-.8,1.857-1.237.539.543,1.077,1.086,1.711,2.25.571,1.042,1.047,1.462,1.523,1.882,0,0,.391.223.077.566-1.651,5.22,2.163,7.038,5.064,9.398,1.027.659,2.055,1.318,2.819,2.48.388,1.152,1.039,1.803,1.69,2.453,0,0-.115.035-.14.351-.026,3.658-.026,7-.026,10.631,2.057-1.188,3.523-2.034,4.99-2.88Z" fill="#fafbfb"/>
      <path d="M352.002,90.994c-.001.753-.002,1.507-.364,2.596-2.214-.647-4.069-1.63-6.382-2.857-.425,1.353-.844,2.688-1.662,4.051-1.67.167-2.941.304-3.296.343,10.578,5.894,21.539,12.001,32.5,18.108,0,0,.148-.147.156.173.353.392.697.464,1.041.536.399.333.798.666,1.643,1.372,3.003,2.238,5.561,4.104,8.119,5.97,0,0,.194-.239.244.162,2.657,2.554,5.265,4.708,7.872,6.862,5.842,5.993,11.684,11.985,17.741,18.199-3.872,4.399-7.354,8.356-11.411,12.286-1.428.167-2.836.14-3.021.601-.406,1.017-.195,2.28-.236,3.443-1.091,1.3-2.182,2.6-3.968,4.027-2.569-.022-4.443-.171-5.491-.255-1.003,1.734-1.785,3.084-2.566,4.434-1.321-1.011-2.642-2.022-4.401-3.38-1.038-.853-1.638-1.359-2.238-1.864-1.547-1.538-3.094-3.075-5.09-5.033-1.323-.989-2.197-1.557-3.07-2.125-2.184-2.105-4.368-4.21-6.953-6.738-.988-.858-1.575-1.293-2.161-1.728-.463-.36-.927-.72-1.812-1.464-1.358-1.111-2.294-1.838-3.23-2.566-3.083-2.368-6.165-4.736-9.728-7.533-1.708-1.192-2.936-1.956-4.163-2.72,0,0-.084.042-.174-.261-1.339-1.14-2.589-1.977-3.839-2.814-2.062-1.639-4.125-3.278-7.128-5.665,18.367-.733,34.503,4.388,50.309,11.2.294-.583.589-1.166.883-1.749-8.664-6.319-17.047-13.077-26.054-18.863-16.915-10.866-35.155-18.929-55.135-22.12-6.856-1.095-13.98-.515-21.366-.706-4.161-.958-7.991-1.738-11.699-2.905-4.73-1.488-9.478-3.027-14.002-5.033-3.85-1.707-4.225-4.315-2.317-8.495,4.382-9.602,11.179-14.279,21.782-13.769,8.437.405,16.895.382,25.903.417.56-.132.864-.263.864-.263.422.04.843.079,1.615.476,1.38,1.103,2.41,1.848,3.645,2.622.484.121.688.299.79.915.997.568,2.023.782,3.303,1.05.696.319,1.138.584,1.572,1.24.259,5.758,3.93,4.166,7.303,3.914,1.762,1.041,3.216,1.984,4.673,3.26.364.962.724,1.59,1.085,2.219.304-.52.608-1.041,1.252-1.521,1.778.735,3.216,1.43,4.739,2.482,1.201.664,2.315.972,3.748,1.235.934.115,1.55.274,2.26.791,1.503.668,2.911.979,4.645,1.274,1.348.274,2.371.563,3.4,1.248,1.768,1.24,3.519,2.105,5.293,2.922,1.512.696,3.049,1.336,4.576,2.001Z" fill="#fafafa"/>
      <path d="M156.317,80.96c5.998,4.249,11.995,8.498,18.054,13.2-8.744,3.427-17.58,6.336-24.803,12.65,1.382.352,2.614.298,3.814.075,10.699-1.984,21.391-4.003,32.087-6.001,3.509-.655,7.024-1.277,10.536-1.914,12.298-.305,23.334,3.076,32.904,11.918.136,1.851.111,2.992.087,4.132-1.397-.121-2.793-.242-4.688-.795-1.439-.348-2.38-.265-3.321-.181-17.534-1.374-35.116-2.137-52.379,1.846-9.782,2.257-19.249,5.883-29.531,9.07-3.333,1.819-5.89,3.663-8.672,5.059-6.558,3.292-7.33,8.955-6.24,15.183.476,2.722,1.925,5.274,2.933,7.904-.375,4.349-.75,8.698-1.551,13.385-5.555-10.003-10.858-20.261-15.762-30.708-4.165-8.874-1.972-16.661,5.547-22.687,7.705-6.176,15.717-11.97,23.603-17.938-.778.089-1.87.037-2.842.354-5.661,1.845-11.295,3.776-17.008,5.595-.071-.084-.218-.247-.048-.542,6.472-4.228,12.577-8.535,19.134-11.981,5.786-3.041,12.076-5.12,18.144-7.624Z" fill="#b6b5b5"/>
      <path d="M181.959,279.691c.535-1.099.913-2.11,1.641-2.611,15.294-10.512,24.69-25.593,31.008-42.399,4.349-11.567,6.819-23.874,9.68-35.956,2.384-10.068.802-19.184-8.542-25.884,9.18,1.67,17.586,5.849,21.884,14.254,2.321,4.539,2.126,11.031,1.305,16.37-1.657,10.773-3.865,21.562-7.071,31.967-3.056,9.917-8.881,18.498-18.44,25.323,3.006.643,5.119,1.096,8.61,1.843-5.691,9.523-11.161,18.677-17.207,28.12-2.659-.047-4.743-.383-6.914-.886-.358-.059-.63.05-1.072.329-.17.17-.44.568-.44.568-4.812-3.571-9.624-7.142-14.442-11.038Z" fill="#7295b4"/>
      <path d="M156.21,80.61c-5.961,2.855-12.251,4.934-18.037,7.975-6.558,3.446-12.663,7.754-19.375,12.029-.681.502-.951.661-1.221.821.527-.081,1.054-.162,1.581-.243,5.643-1.902,11.276-3.834,16.937-5.678.972-.317,2.063-.265,2.842-.354-7.886,5.968-15.897,11.762-23.603,17.938-7.519,6.026-9.712,13.814-5.547,22.687,4.903,10.446,10.206,20.705,15.649,31.16.766,1.843,1.22,3.571,1.196,5.686-1.029.442-1.581.497-2.133.552-3.083-2.48-6.166-4.96-9.022-7.85.494-.733.762-1.056,1.029-1.379-.234-.129-.66-.389-.675-.368-.31.452-.574.936-.848,1.413-11.612-10.181-19.317-22.64-21.864-38.005-1.417-8.55,2.242-15.748,7.222-22.108,13.123-16.761,31.223-26.338,50.517-34.511,1.889,3.56,3.567,6.722,5.351,10.234Z" fill="#f7f7f7"/>
      <path d="M127.381,152.928c-1.289-2.451-2.738-5.003-3.214-7.725-1.09-6.228-.318-11.89,6.24-15.183,2.782-1.397,5.339-3.241,8.349-4.926,2.179.128,4.063.678,5.826.415,23.064-3.441,46.063-4.667,68.769,2.152,3.713,1.115,7.119,3.251,10.667,4.916-.093.588-.186,1.176-.278,1.764-2.161,0-4.334-.145-6.482.023-19.529,1.528-39.116,2.594-58.55,4.932-7.754.933-15.286,4.407-22.678,7.332-3.109,1.23-5.596,4.033-8.648,6.3Z" fill="#7193b3"/>
      <path d="M173.129,65.919c6.493,3.174,12.92,1.431,19.187-.583,7.988-2.567,15.84-5.555,24.561-8.361,4.206-1.39,7.602-2.78,10.998-4.169,0,0,.073.04.465.098,1.815.072,3.237.087,4.656.456-.335,1.705-.666,3.056-.998,4.406-2.076.779-4.152,1.559-6.709,2.185-.687.103-.893.358-1.099.614-10.751,4.325-21.31,9.255-32.322,12.764-7.312,2.33-15.188,2.155-21.725-4.277.931-1.489,1.958-2.311,2.985-3.133Z" fill="#7694b2"/>
      <path d="M195.705,98.716c-3.212.892-6.727,1.514-10.236,2.169-10.696,1.997-21.388,4.016-32.087,6.001-1.201.223-2.432.277-3.814-.075,7.223-6.314,16.059-9.223,25.093-12.463,7.068,1.194,13.906,2.654,21.044,4.369Z" fill="#7c93a8"/>
      <path d="M233,53.005c-1.423-.015-2.845-.029-4.696-.08,4.863-1.414,10.155-2.792,16.346-4.081,4.39-.416,7.881-.921,11.371-1.426,1.392-.01,2.784-.02,4.714.397,2.428.431,4.319.436,6.209.441,4.721,1.574,9.443,3.147,14.221,5.065-3.685.028-7.455-.745-11.163-.517-9.692.597-19.357,1.632-29.522,2.158-2.017-4.335-5.086-1.696-7.481-1.957Z" fill="#7891aa"/>
      <path d="M229.027,82.067c2.872-3.18,2.731-6.561-.146-10.932,6.659-1.206,12.695-2.299,19.686-3.565-5.135,6.966-9.991,12.704-18.097,15.441-.894-.367-1.169-.655-1.443-.943Z" fill="#eaecf0"/>
      <path d="M228.654,82.178c.648.177.923.465,1.471.881-8.434,4.138-17.378,4.158-27.135,2.281,5.58-2.43,10.392-4.526,15.527-6.763,1.999,3.688,4.97,6.112,10.137,3.6Z" fill="#dce0e7"/>
      <path d="M64.36,60.002c-1.159-6.512,4.062-10.036,8.364-12.165,5.694-2.818,12.55-3.287,19.357-4.725-4.343,1.796-9.033,3.964-13.957,5.205-6.554,1.652-10.349,6.071-13.764,11.685Z" fill="#aaaab3"/>
      <path d="M272.061,136.207c4.175,4.689,8.044,9.939,10.926,17.009-3.681-.78-6.016-1.274-8.674-1.964,1.554-2.81,1.602-5.284-.152-8.151-1.156-1.89-1.445-4.311-2.1-6.894Z" fill="#242334"/>
      <path d="M172.943,65.623c-.841,1.118-1.868,1.939-2.946,3.117-6.123-5.594-5.949-12.062.828-19.513-1.148,5.541-3.831,11.236,2.118,16.397Z" fill="#7a91a4"/>
      <path d="M100.412,41.085c1.24-1.022,2.771-2.549,4.558-2.957,4.835-1.106,9.779-1.737,14.88-2.277-6.209,1.933-12.62,3.586-19.438,5.235Z" fill="#aaaab3"/>
      <path d="M232.997,53.36c2.399-.094,5.467-2.732,7.058,1.644-2.402,1.17-4.867,1.963-7.694,2.759-.03-1.348.301-2.698.636-4.403Z" fill="#7591b3"/>
      <path d="M229.321,115.183c-.3-1.302-.276-2.443-.224-4.01,2.715,1.059,5.402,2.545,8.088,4.031-.192.435-.385.871-.577,1.306-2.321-.388-4.642-.777-7.288-1.327Z" fill="#a2a5b2"/>
      <path d="M148.413,31.101c1.032-3.653,3.759-1.859,6.379-1.285-1.821.638-3.895.978-6.379,1.285Z" fill="#aaabb4"/>
      <path d="M160.513,29.418c1.404-1.407,3.151-2.894,5.286-4.36-1.389,1.44-3.166,2.861-5.286,4.36Z" fill="#aaabb4"/>
      <path d="M298.072,64.493c.031.374-.273.505-.432.549-1.228-1.112-2.297-2.27-3.519-3.726,4.683-3.834,3.586.424,3.951,3.176Z" fill="#f2f5f6"/>
      <path d="M271.921,150.514c-1.698.186-3.479.018-5.598-.317,1.614-.124,3.564-.08,5.598.317Z" fill="#242334"/>
      <path d="M260.913,149.292c-1.361.248-2.825.173-4.61-.068,1.288-.196,2.898-.226,4.61.068Z" fill="#242334"/>
      <path d="M114.427,69.033c-1.361-.252-2.438-.53-3.516-.807.595-.663,1.19-1.325,1.785-1.988.966.393,1.931.787,3.086,1.43-.231.613-.651.976-1.355,1.365Z" fill="#f0f1f2"/>
      <path d="M124.341,63.068c-.566-.694-.837-1.419-1.108-2.145.896.141,1.792.282,2.722.727-.417.664-.868,1.026-1.614,1.418Z" fill="#f0f1f2"/>
      <path d="M122.31,35.863c-.026-.851.27-1.666.565-2.48.624.374,1.249.749,2.016,1.419-.658.563-1.459.831-2.581,1.061Z" fill="#aaaab3"/>
      <path d="M93.335,43.122c.563-.507,1.458-1.003,2.546-1.218-.61.597-1.412.913-2.546,1.218Z" fill="#aaaab3"/>
      <path d="M221.269,114.189c.661-.227,1.602-.311,2.657-.136-.716.265-1.546.272-2.657.136Z" fill="#a2a5b2"/>
      <path d="M115,164.971c.257-.449.521-.933.831-1.385.015-.022.44.239.675.368-.268.323-.535.646-1.153,1.019-.35.049-.337-.03-.353-.002Z" fill="#eceef0"/>
      <path d="M121.636,54.03c-.284.313-.927.583-1.937.789.282-.319.93-.576,1.937-.789Z" fill="#f0f1f2"/>
      <path d="M124.717,173.477c.334-.349.886-.404,1.853-.468-.268.248-.951.505-1.853.468Z" fill="#eceef0"/>
      <path d="M156.255,30.017c.007-.171.267-.306.629-.293-.058.209-.217.269-.629.293Z" fill="#aaabb4"/>
      <path d="M141.255,50.457c.116.077.22.184.323.292-.114.042-.228.084-.36-.101-.018-.227.024-.16.038-.19Z" fill="#f0f1f2"/>
      <path d="M141.305,53.976c-.02-.259.264-.516.842-.797.016.251-.261.524-.842.797Z" fill="#f0f1f2"/>
      <path d="M224.416,60.504c-.018-.194.188-.45.507-.506.113.2-.283.444-.507.506Z" fill="#7891aa"/>
      <path d="M352.025,230.041c-.101.318-.287.575-1.191.866-2.019.097-3.405.098-4.79.1-3.406-12.414-5.91-25.173-10.48-37.143-4.334-11.353-10.442-22.103-16.522-32.686-3.669-6.387-8.465-12.218-13.312-17.815-5.582-6.445-11.779-12.358-17.746-19.244-1.684-1.535-3.33-2.327-4.976-3.118-.324-.096-.59-.277-.758-1.093,1.923-1.335,3.806-2.12,5.689-2.905,3.657,1.775,7.313,3.551,10.781,5.764,15.652,12.683,29.28,27.144,40.455,43.643,9.939,14.675,18.709,30.141,27.844,45.608-2.251,2.711-4.457,4.99-6.414,7.465-1.359,1.719-2.376,3.709-3.546,5.579,0,0-.057-.059-.403-.045-1.774,1.685-3.202,3.355-4.629,5.026Z" fill="#7194b3"/>
      <path d="M367.168,211.667c-9.286-15.117-18.056-30.584-27.996-45.259-11.174-16.499-24.802-30.96-40.394-43.371,7.248,3.535,14.248,7.235,21.803,11.275,5.448,3.646,10.341,6.952,15.234,10.259.054.267.207.454.855.852,6.373,5.057,12.347,9.824,18.322,14.591.4.417.8.833,1.623,1.651,1.597,1.323,2.771,2.244,3.945,3.165,1.282,1.321,2.563,2.642,4.253,4.377,1.338,1.2,2.269,1.985,3.199,2.77,0,0-.013.021.13.321,3.381,3.434,6.619,6.569,9.857,9.703.178.274.356.548.769.909,3.49,3.818,6.745,7.549,10.655,12.032-6.977,6.416-13.827,12.716-20.999,18.633-.634-.891-.945-1.401-1.256-1.911Z" fill="#181e36"/>
      <path d="M334.93,220.081c-2.024-1.04-4.048-2.08-7.482-3.844,1.194,3.099,1.994,4.944,2.621,6.846,1.765,5.36,3.32,10.793,5.227,16.101,1.438,4,1.078,7.009-2.957,9.286-1.938,1.094-3.457,2.93-6.025,5.183-4.257-30.205-13.813-57.647-29.29-82.967.461-.331.922-.661,1.383-.992,3.183,3.762,6.453,7.453,9.511,11.314,1.539,1.943,2.699,4.187,4.018,6.303,5.243,8.416,9.811,17.255,18.069,23.486,2.431,1.834,3.477,5.504,5.091,8.755-.066.422-.168.53-.168.53Z" fill="#f9f8f6"/>
      <path d="M307.018,269.009c-6.028,5.368-12.056,10.736-18.084,16.104,5.521-24.089,9.396-47.861,8.918-73.063.014-3.632.05-6.406.373-9.034.769,1.091,1.252,2.036,1.727,3.392,1.723,12.207,3.709,23.972,5.104,35.806,1.047,8.885,1.336,17.86,1.962,26.795Z" fill="#1a2038"/>
      <path d="M307.366,268.982c-.974-8.909-1.263-17.883-2.31-26.769-1.395-11.835-3.38-23.6-4.71-35.805,1.189-.431,1.976-.451,2.995-.479.232-.007.693-.052.693-.052.02.196.039.391.049,1.18-.014,1.001-.018,1.409-.043,2.247.325,2.536-1.357,5.765,3.063,6.041.742,2.773,1.321,5.21,1.673,7.814.219.735.666,1.303,1.112,1.872,0,0,.075-.02.107.337.665,2.126,1.299,3.896,1.933,5.665.015.436.03.873.069,1.972.336,1.447.649,2.23.962,3.014.033.744.066,1.488.14,3.005,1.029,7.844,2.016,14.914,3.003,21.985-2.796,2.649-5.592,5.299-8.736,7.974Z" fill="#7391af"/>
      <path d="M355.113,159.718c-6.096-4.471-12.07-9.238-18.257-14.277,3.059-1.163,5.779-1.717,8.214,2.11,1.987,3.123,5.619,5.162,8.293,7.904.965.989,1.267,2.625,1.75,4.263Z" fill="#b2b3b3"/>
      <path d="M287.752,116.715c-1.699,1.071-3.582,1.856-5.618,2.975-4.061-2.207-7.968-4.748-11.874-7.289.227-.432.454-.865.681-1.297,6.253-.72,11.349,2.623,16.811,5.611Z" fill="#7e96ac"/>
      <path d="M303.109,205.936c-.787.021-1.574.041-2.755.061-.877-.946-1.36-1.891-2.112-3.344-.894-1.586-1.52-2.663-2.145-3.74-.012-.421-.024-.843-.019-1.901-.001-1.767-.02-2.896-.042-4.411.313-1.776.63-3.166.946-4.556.266.793.532,1.586.952,3.01,1.084,1.804,2.015,2.978,2.945,4.151.014.399.028.798.09,1.793.353,1.076.658,1.556.964,2.036.265.791.53,1.583.92,3.06.168,1.738.212,2.79.256,3.842Z" fill="#7c91a4"/>
      <path d="M316.5,260.989c-1.385-7.051-2.373-14.122-3.362-21.595,3.424,2.364,7.114,17.691,5.12,21.122-.18.31-.894.31-1.759.473Z" fill="#abb2b9"/>
      <path d="M335.862,144.154c-4.94-2.889-9.833-6.195-14.951-9.769,5.219,1.244,10.664,2.755,16.273,4.312-.382,1.51-.828,3.275-1.322,5.457Z" fill="#b2b3b3"/>
      <path d="M295.798,199.178c.925.812,1.551,1.889,2.159,3.329-.054,3.136-.091,5.911-.206,9.085-.803-3.783-1.528-7.965-1.953-12.414Z" fill="#afb7c2"/>
      <path d="M309.003,222.992c-.579-2.437-1.158-4.874-1.921-8.001-.812-2.461-1.441-4.233-2.055-6.019.015-.015.045-.044.045-.044,4.821,3.258,4.568,8.389,4.655,13.703-.252.402-.725.361-.725.361Z" fill="#abb2b9"/>
      <path d="M296.956,187.692c-.29,1.743-.607,3.133-1.181,4.914-.432.39-.606.391-.779.391-.583-3.114-1.166-6.228-1.75-9.342.335-.162.671-.325,1.006-.487.893,1.391,1.785,2.781,2.704,4.524Z" fill="#abb2b9"/>
      <path d="M312.21,230.809c-.916-1.546-1.549-3.315-2.178-5.455.823,1.496,1.642,3.364,2.178,5.455Z" fill="#abb2b9"/>
      <path d="M283.153,121.3c1.5.492,3.146,1.284,4.761,2.487-1.559-.455-3.087-1.321-4.761-2.487Z" fill="#7e96ac"/>
      <path d="M294.731,193.22c.439-.224.613-.224,1.048-.23.28,1.125.299,2.254.284,3.705-.555-.87-1.076-2.061-1.332-3.476Z" fill="#afb7c2"/>
      <path d="M300.894,194.841c-.945-.808-1.875-1.982-2.819-3.5.935.815,1.885,1.975,2.819,3.5Z" fill="#abb2b9"/>
      <path d="M336.075,133.194c1.238.46,2.488,1.296,3.874,2.432-1.197-.486-2.529-1.27-3.874-2.432Z" fill="#b2b3b3"/>
      <path d="M313.22,235.823c-.574-.589-.887-1.373-1.191-2.493.49.541.971,1.42,1.191,2.493Z" fill="#abb2b9"/>
      <path d="M303.341,205.93c-.276-1.045-.32-2.097-.357-3.546.349.665.691,1.727,1.042,3.141.008.353-.453.398-.685.405Z" fill="#abb2b9"/>
      <path d="M308.776,223.159c.227-.167.7-.126.935-.094.232.462.229.891.201,1.643-.47-.246-.917-.814-1.136-1.549Z" fill="#7995a8"/>
      <path d="M302.174,198.865c-.546-.311-.852-.791-1.178-1.568.459.268.939.833,1.178,1.568Z" fill="#abb2b9"/>
      <path d="M304.06,208.874c.005-.408.009-.815.059-1.524.32.144.596.59.913,1.306.041.271.011.301-.242.29-.253-.012-.729-.072-.729-.072Z" fill="#abb2b9"/>
      <path d="M335.99,221.012l.419.442c-.101-.049-.201-.097-.356-.299-.053-.154-.063-.142-.063-.142Z" fill="#f9f8f6"/>
      <path d="M336.005,220.996c-.28-.159-.566-.314-.964-.692-.112-.223-.009-.331.047-.384.314.158.571.37.864.837.037.255.047.244.052.239Z" fill="#f9f8f6"/>
      <path d="M304.181,68.526c-.13-.263-.335-.441-.756-.795.049-.524.264-.766.502-.988,1.371.185,2.742.37,4.756.76,1.205.224,1.767.244,2.329.263.447.057.894.113,2.059.225,3.504.211,6.291.367,9.077.523,1.237-.076,2.474-.152,4.284-.473,1.173-.329,1.775-.414,2.376-.499,1.069.553,2.138,1.106,3.86,1.863,2.552.356,4.452.508,6.352.659,1.381.338,2.762.677,4.775,1.235,1.8.475,2.968.73,4.137.985.489.254.977.508,1.943,1.056,2.739,1.927,5,3.56,7.262,5.194,0,0-.05.21-.143.682-.863.993-1.633,1.514-2.731,1.921-3.3-1.1-6.272-2.086-9.255-3.472-.205-3.355-1.591-4.535-4.732-4.767-6.759-.499-13.473-1.595-20.217-2.342-.899-.1-1.866.408-3.949.912,3.923,2.171,6.844,3.52,9.444,5.331,1.431.997,2.321,2.771,3.203,4.245-.422.074-.592.098-.761.122-1.438-.695-2.876-1.39-4.842-2.349-1.069-.445-1.612-.627-2.154-.808-1.453-.943-2.906-1.885-4.878-3.189-2.707-1.588-4.897-2.815-7.086-4.042-.442-.265-.884-.53-1.817-1.09-1.34-.584-2.189-.873-3.037-1.163Z" fill="#8199ac"/>
      <path d="M333.993,83.192c-.616-.159-1.232-.318-2.366-.671-.973-.597-1.429-1-1.411-1.445,4.255.556,8.022,1.415,11.826,1.63,1.623.092,3.323-1.158,5.317-1.731,1.727.732,3.125,1.397,4.715,2.332,2.02,2.044,3.847,3.818,5.675,5.592-.978-.109-1.955-.218-3.597-.547-4.451-1.039-8.237-1.858-12.024-2.678-1.023-.289-2.046-.578-3.653-1.091-1.883-.613-3.181-1.003-4.48-1.392Z" fill="#8199ac"/>
      <path d="M321.984,68.158c-2.622.2-5.408.044-8.577-.213,2.524-5.718,5.474-1.671,8.577.213Z" fill="#f2f5f6"/>
      <path d="M227.492,52.828c-3.013,1.368-6.408,2.757-10.239,4.126,2.995-1.382,6.426-2.743,10.239-4.126Z" fill="#7891aa"/>
      <path d="M255.608,47.304c-3.077.619-6.567,1.124-10.549,1.573,3.051-.6,6.593-1.144,10.549-1.573Z" fill="#87a0aa"/>
      <path d="M266.582,48.131c-1.527.12-3.417.115-5.451-.172,1.6-.172,3.344-.062,5.451.172Z" fill="#87a0aa"/>
      <path d="M303.721,66.517c-.031.448-.246.69-.501,1.186-1.092-.513-2.122-1.258-3.184-2.353,1.138.081,2.308.511,3.685,1.167Z" fill="#f2f5f6"/>
      <path d="M338.752,69.762c-1.632.151-3.532,0-5.772-.385,1.608-.128,3.556-.023,5.772.385Z" fill="#f2f5f6"/>
      <path d="M328.844,67.133c-.637.494-1.239.579-2.138.642-.095-.825.109-1.628.313-2.431.621.46,1.241.919,1.826,1.789Z" fill="#f2f5f6"/>
      <path d="M310.957,67.475c-.506.272-1.068.253-1.858.063.449-.232,1.126-.293,1.858-.063Z" fill="#f2f5f6"/>
      <path d="M309.027,71.169c2.198.837,4.387,2.064,6.785,3.553-2.855.612-6.526,2.205-6.785-3.553Z" fill="#f2f5f6"/>
      <path d="M334.087,83.549c1.205.032,2.503.422,4.061,1.05-1.149-.072-2.558-.382-4.061-1.05Z" fill="#f2f5f6"/>
      <path d="M321.003,78.343c.538-.151,1.08.03,1.809.435-.117.743-.421,1.264-.725,1.784-.36-.629-.72-1.257-1.085-2.219Z" fill="#f2f5f6"/>
      <path d="M329.742,81.118c.456.403.911.806,1.567,1.447-.915-.07-2.03-.377-3.23-1.041.084-.381.254-.405.854-.415.43.015.809.009.809.009Z" fill="#f2f5f6"/>
      <path d="M304.152,68.879c.877-.064,1.726.226,2.811.756-.789.026-1.815-.188-2.811-.756Z" fill="#f2f5f6"/>
      <path d="M119.087,101.108c-.456.165-.983.246-1.51.327.27-.16.54-.319,1.051-.527.241-.048.388.116.459.2Z" fill="#b6b5b5"/>
      <path d="M304.04,209.304c.02-.43.496-.37.734-.343.867,1.798,1.496,3.569,2.145,5.695-4.237.414-2.554-2.815-2.879-5.351Z" fill="#7995a8"/>
      <path d="M330.216,81.076c-.473.042-.852.047-1.03-.017-1.312-1.488-2.202-3.262-3.633-4.26-2.599-1.811-5.521-3.161-9.444-5.331,2.083-.504,3.049-1.011,3.949-.912,6.744.747,13.458,1.843,20.217,2.342,3.142.232,4.528,1.412,4.53,4.88-.339.938-.487,1.363-.632,2.011.282.169.561.114,1.136.092.771.364,1.245.695,1.72,1.026-1.665.64-3.364,1.89-4.987,1.798-3.803-.215-7.571-1.074-11.826-1.63Z" fill="#7195b8"/>
    </g>
  </g>
</svg>